<svg id="Layer_3" enable-background="new 0 0 64 64" height="512" viewBox="0 0 64 64" width="512" xmlns="http://www.w3.org/2000/svg"><circle cx="52" cy="12" fill="#c7e2fc" r="10"/><path d="m52 13c-2.761 0-5 2.239-5 5v2.651c1.472.853 3.176 1.349 5 1.349s3.528-.496 5-1.349v-2.651c0-2.761-2.239-5-5-5z" fill="#78b75b"/><circle cx="52" cy="8" fill="#efbe9a" r="3"/><circle cx="12" cy="12" fill="#c7e2fc" r="10"/><path d="m12 13c-2.761 0-5 2.239-5 5v2.651c1.472.853 3.176 1.349 5 1.349s3.528-.496 5-1.349v-2.651c0-2.761-2.239-5-5-5z" fill="#78b75b"/><circle cx="12" cy="8" fill="#efbe9a" r="3"/><circle cx="52" cy="52" fill="#c7e2fc" r="10"/><path d="m52 53c-2.761 0-5 2.239-5 5v2.651c1.472.853 3.176 1.349 5 1.349s3.528-.496 5-1.349v-2.651c0-2.761-2.239-5-5-5z" fill="#78b75b"/><circle cx="52" cy="48" fill="#efbe9a" r="3"/><circle cx="12" cy="52" fill="#c7e2fc" r="10"/><path d="m12 53c-2.761 0-5 2.239-5 5v2.651c1.472.853 3.176 1.349 5 1.349s3.528-.496 5-1.349v-2.651c0-2.761-2.239-5-5-5z" fill="#78b75b"/><circle cx="12" cy="48" fill="#efbe9a" r="3"/><path d="m39 39c2.209 0 4-1.791 4-4s-1.791-4-4-4c-.028 0-.053.008-.081.008.048-.33.081-.665.081-1.008 0-3.866-3.134-7-7-7s-7 3.134-7 7c0 .343.033.678.081 1.008-.028 0-.053-.008-.081-.008-2.209 0-4 1.791-4 4s1.791 4 4 4z" fill="#a1cdfb"/><path d="m12 23c-6.065 0-11-4.935-11-11s4.935-11 11-11 11 4.935 11 11-4.935 11-11 11zm0-20c-4.963 0-9 4.038-9 9s4.037 9 9 9 9-4.038 9-9-4.037-9-9-9z"/><path d="m12 12c-2.206 0-4-1.794-4-4s1.794-4 4-4 4 1.794 4 4-1.794 4-4 4zm0-6c-1.103 0-2 .897-2 2s.897 2 2 2 2-.897 2-2-.897-2-2-2z"/><path d="m18 21h-2v-3c0-2.206-1.794-4-4-4s-4 1.794-4 4v3h-2v-3c0-3.309 2.691-6 6-6s6 2.691 6 6z"/><path d="m52 23c-6.065 0-11-4.935-11-11s4.935-11 11-11 11 4.935 11 11-4.935 11-11 11zm0-20c-4.963 0-9 4.038-9 9s4.037 9 9 9 9-4.038 9-9-4.037-9-9-9z"/><path d="m52 12c-2.206 0-4-1.794-4-4s1.794-4 4-4 4 1.794 4 4-1.794 4-4 4zm0-6c-1.103 0-2 .897-2 2s.897 2 2 2 2-.897 2-2-.897-2-2-2z"/><path d="m58 21h-2v-3c0-2.206-1.794-4-4-4s-4 1.794-4 4v3h-2v-3c0-3.309 2.691-6 6-6s6 2.691 6 6z"/><path d="m12 63c-6.065 0-11-4.935-11-11s4.935-11 11-11 11 4.935 11 11-4.935 11-11 11zm0-20c-4.963 0-9 4.037-9 9s4.037 9 9 9 9-4.037 9-9-4.037-9-9-9z"/><path d="m12 52c-2.206 0-4-1.794-4-4s1.794-4 4-4 4 1.794 4 4-1.794 4-4 4zm0-6c-1.103 0-2 .897-2 2s.897 2 2 2 2-.897 2-2-.897-2-2-2z"/><path d="m18 61h-2v-3c0-2.206-1.794-4-4-4s-4 1.794-4 4v3h-2v-3c0-3.309 2.691-6 6-6s6 2.691 6 6z"/><path d="m52 63c-6.065 0-11-4.935-11-11s4.935-11 11-11 11 4.935 11 11-4.935 11-11 11zm0-20c-4.963 0-9 4.037-9 9s4.037 9 9 9 9-4.037 9-9-4.037-9-9-9z"/><path d="m52 52c-2.206 0-4-1.794-4-4s1.794-4 4-4 4 1.794 4 4-1.794 4-4 4zm0-6c-1.103 0-2 .897-2 2s.897 2 2 2 2-.897 2-2-.897-2-2-2z"/><path d="m58 61h-2v-3c0-2.206-1.794-4-4-4s-4 1.794-4 4v3h-2v-3c0-3.309 2.691-6 6-6s6 2.691 6 6z"/><path d="m39 40h-14c-2.757 0-5-2.243-5-5 0-2.415 1.721-4.436 4.001-4.9-.001-.033-.001-.067-.001-.1 0-4.411 3.589-8 8-8s8 3.589 8 8c0 .04 0 .079-.001.119 2.313.484 4.001 2.488 4.001 4.881 0 2.757-2.243 5-5 5zm-14.047-8c-1.633.025-2.953 1.361-2.953 3 0 1.654 1.346 3 3 3h14c1.654 0 3-1.346 3-3 0-1.639-1.321-2.975-2.955-3-.048.005-.094.008-.126.008-.287 0-.561-.124-.75-.339-.194-.22-.281-.514-.239-.805.048-.332.07-.607.07-.864 0-3.309-2.691-6-6-6s-6 2.691-6 6c0 .257.022.532.07.865.042.291-.045.584-.239.805-.194.219-.469.319-.768.339-.027-.001-.071-.005-.11-.009z"/><path d="m37.343 24h11.314v2h-11.314z" transform="matrix(.707 -.707 .707 .707 -5.083 37.728)"/><path d="m20 19.343h2v11.314h-2z" transform="matrix(.707 -.707 .707 .707 -11.527 22.172)"/><path d="m43.5 36.964h2v7.071h-2z" transform="matrix(.707 -.707 .707 .707 -15.604 43.328)"/><path d="m15.964 39.5h7.071v2h-7.071z" transform="matrix(.707 -.707 .707 .707 -22.926 25.651)"/></svg>